<svg width="36" height="40" viewBox="0 0 36 40" fill="none" xmlns="http://www.w3.org/2000/svg">
<path fill-rule="evenodd" clip-rule="evenodd" d="M23.5385 8.43167e-07H16.0497C12.6569 -3.63661e-05 9.96958 -5.50858e-05 7.86643 0.284912C5.70196 0.578159 3.95005 1.19606 2.56844 2.58835C1.18686 3.98067 0.573712 5.74616 0.282721 7.92741C-5.4442e-05 10.0469 -3.60865e-05 12.755 8.36596e-07 16.1741V27.4419C8.36596e-07 30.925 2.53302 33.8121 5.84402 34.3343C6.09873 35.7557 6.58621 36.9689 7.56619 37.9567C8.67742 39.0765 10.0766 39.5581 11.7383 39.7833C13.3389 40 15.3738 40 17.8986 40H23.6398C26.1646 40 28.1996 40 29.8002 39.7833C31.462 39.5581 32.861 39.0765 33.9724 37.9567C35.0836 36.8367 35.5615 35.4268 35.7849 33.7522C36 32.1392 36 30.0884 36 27.544V18.0374C36 15.4931 36 13.4423 35.7849 11.8293C35.5615 10.1547 35.0836 8.74469 33.9724 7.62484C32.9922 6.63727 31.7884 6.14601 30.3779 5.88932C29.8597 2.55265 26.9948 8.43167e-07 23.5385 8.43167e-07ZM27.4695 5.62078C26.9105 3.97438 25.3617 2.7907 23.5385 2.7907H16.1538C12.6336 2.7907 10.1326 2.79366 8.23542 3.05072C6.37802 3.30236 5.3079 3.77431 4.52659 4.56168C3.74527 5.34904 3.27696 6.42746 3.02725 8.29926C2.77217 10.2112 2.76923 12.7315 2.76923 16.2791V27.4419C2.76923 29.2793 3.94383 30.84 5.57755 31.4033C5.53843 30.2687 5.53844 28.9855 5.53846 27.544V18.0374C5.53843 15.4931 5.53839 13.4423 5.75358 11.8293C5.977 10.1547 6.45495 8.74469 7.56619 7.62484C8.67742 6.50499 10.0766 6.02333 11.7383 5.79818C13.3389 5.58132 15.3738 5.58136 17.8986 5.5814H23.6398C25.0702 5.58138 26.3435 5.58136 27.4695 5.62078ZM9.52433 9.59816C10.0353 9.08326 10.7526 8.74754 12.1073 8.564C13.5018 8.37505 15.35 8.37209 18 8.37209H23.5385C26.1884 8.37209 28.0366 8.37505 29.4312 8.564C30.7859 8.74754 31.5031 9.08326 32.0142 9.59816C32.5252 10.1131 32.8582 10.836 33.0404 12.2012C33.2278 13.6065 33.2308 15.469 33.2308 18.1395V27.4419C33.2308 30.1124 33.2278 31.9749 33.0404 33.3803C32.8582 34.7455 32.5252 35.4683 32.0142 35.9833C31.5031 36.4982 30.7859 36.8339 29.4312 37.0175C28.0366 37.2063 26.1884 37.2093 23.5385 37.2093H18C15.35 37.2093 13.5018 37.2063 12.1073 37.0175C10.7526 36.8339 10.0353 36.4982 9.52433 35.9833C9.01339 35.4683 8.68025 34.7455 8.49812 33.3803C8.31063 31.9749 8.30769 30.1124 8.30769 27.4419V18.1395C8.30769 15.469 8.31063 13.6065 8.49812 12.2012C8.68025 10.836 9.01339 10.1131 9.52433 9.59816Z" fill="#7e75fd"/>
</svg>
