<svg width="125" height="125" viewBox="0 0 125 125" fill="none" xmlns="http://www.w3.org/2000/svg">
<g clip-path="url(#clip0_99_1759)">
<path d="M62.4459 124.684L26.3717 114.67L18.3328 24.5034H106.667L98.6196 114.656L62.4459 124.684Z" fill="#0B3753"/>
<path d="M91.7302 108.915L98.6073 31.8758H62.5V117.019L91.7302 108.915Z" fill="#42BDDF"/>
<path d="M36.762 65.3172L37.7531 76.3756H62.5V65.3172H36.762Z" fill="#EBEBEB"/>
<path d="M34.7703 42.9345L35.7755 53.9931H62.4998V42.9345H34.7703Z" fill="#EBEBEB"/>
<path d="M62.4998 94.0375L62.4514 94.0504L50.1354 90.7248L49.3481 81.9051H38.2471L39.7964 99.2686L62.449 105.557L62.4998 105.543V94.0375Z" fill="#EBEBEB"/>
<path d="M39.1216 0H52.5154V5.60105H44.7226V11.2021H52.5154V16.8031H39.1216V0Z" fill="white"/>
<path d="M55.1943 0H68.5881V4.87048H60.7954V5.84457H68.5881V17.0467H55.1943V11.9327H62.9871V10.9586H55.1943V0Z" fill="white"/>
<path d="M71.2668 0H84.6607V4.87048H76.8679V5.84457H84.6607V17.0467H71.2668V11.9327H79.0596V10.9586H71.2668V0Z" fill="white"/>
<path d="M88.1671 65.3172L90.1635 42.9345H62.4617V53.9931H78.0443L77.038 65.3172H62.4617V76.3756H76.079L74.7954 90.7177L62.4617 94.0467V105.552L85.1323 99.2686L85.2986 97.4003L87.8972 68.2868L88.1671 65.3172Z" fill="white"/>
</g>
<defs>
<clipPath id="clip0_99_1759">
<rect width="125" height="125" fill="white"/>
</clipPath>
</defs>
</svg>
