<svg width="125" height="125" viewBox="0 0 125 125" fill="none" xmlns="http://www.w3.org/2000/svg">
<g clip-path="url(#clip0_99_1724)">
<path d="M106.667 24.5034L98.6196 114.656L62.4459 124.684L26.3717 114.67L18.3328 24.5034H106.667Z" fill="#E65100"/>
<path d="M62.5 117.019L91.7302 108.915L98.6073 31.8758H62.5V117.019Z" fill="#FF6D00"/>
<path d="M46.8559 53.9931H62.4998V42.9345H34.7703L35.035 45.9013L37.7529 76.3756H62.4998V65.3172H47.8665L46.8559 53.9931Z" fill="#EBEBEB"/>
<path d="M49.3481 81.9051H38.2471L39.7964 99.2686L62.449 105.557L62.4998 105.543V94.0375L62.4514 94.0504L50.1354 90.7248L49.3481 81.9051Z" fill="#EBEBEB"/>
<path d="M26.5515 0H32.1713V5.55234H37.3121V0H42.9321V16.8139H37.3123V11.1836H32.1716V16.8139H26.5518L26.5515 0Z" fill="white"/>
<path d="M50.3222 5.57572H45.3748V0H60.8921V5.57572H55.9425V16.8139H50.3224L50.3222 5.57572Z" fill="white"/>
<path d="M63.355 0H69.2149L72.8195 5.90789L76.4205 0H82.2826V16.8139H76.686V8.47999L72.8195 14.4583H72.7229L68.8538 8.47999V16.8139H63.355V0Z" fill="white"/>
<path d="M85.0796 0H90.7011V11.2562H98.6042V16.8139H85.0796V0Z" fill="white"/>
<path d="M62.4617 76.3756H76.079L74.7954 90.7177L62.4617 94.0467V105.552L85.1323 99.2686L85.2986 97.4003L87.8972 68.2868L88.1671 65.3172H62.4617V76.3756Z" fill="white"/>
<path d="M62.4617 53.9661V53.9931H89.1733L89.3952 51.5075L89.899 45.9013L90.1635 42.9345H62.4617V53.9661Z" fill="white"/>
</g>
<defs>
<clipPath id="clip0_99_1724">
<rect width="125" height="125" fill="white"/>
</clipPath>
</defs>
</svg>
