<svg width="32" height="44" viewBox="0 0 32 44" fill="none" xmlns="http://www.w3.org/2000/svg">
<path d="M12.6866 21.9171L11.7627 20.9749L10.8191 21.9373L11.7429 22.8795L12.6866 21.9171Z" fill="#3DDAFF"/>
<path d="M9.87789 30.6014L10.8018 31.5437L15.9915 26.2505L15.0677 25.3083L9.87789 30.6014Z" fill="#3DDAFF"/>
<path d="M22.6179 36.8567L23.5417 37.799L24.9571 36.3554L24.0332 35.4131L22.6179 36.8567Z" fill="#3DDAFF"/>
<path d="M27.3138 15.6824C24.4463 12.7579 20.6818 11.0812 16.6533 10.9172V0H15.3467V10.9172C11.3182 11.0812 7.55369 12.7579 4.68622 15.6825C1.66428 18.7648 0 22.8626 0 27.2216C0 31.5805 1.66428 35.6784 4.68622 38.7606C7.80553 41.9419 11.9028 43.5326 16 43.5326C20.0973 43.5326 24.1946 41.9419 27.3138 38.7606C30.3356 35.6784 32 31.5804 32 27.2216C32.0001 22.8628 30.3357 18.7647 27.3138 15.6824ZM25.8983 35.3921L30.231 30.9731C29.5849 33.5404 28.2757 35.8948 26.3898 37.8183C23.5249 40.7401 19.7632 42.2009 16 42.2006C14.2186 42.2004 12.4372 41.8722 10.7506 41.2172L27.3137 24.3242L26.3898 23.3819L9.46448 40.6443C8.07255 39.9407 6.76782 38.999 5.61031 37.8183C4.1186 36.2968 2.98785 34.5057 2.26025 32.5529L10.8003 23.8428L9.87638 22.9006L1.80925 31.1284C1.47829 29.87 1.30673 28.5593 1.30673 27.2215C1.30673 23.2185 2.83512 19.4552 5.61031 16.6248C7.49609 14.7014 9.80452 13.3659 12.3218 12.7071L7.04551 18.0885L7.96943 19.0307L14.5628 12.3059C15.0375 12.2592 15.5169 12.2354 16 12.2354C19.2541 12.2354 22.3461 13.308 24.8898 15.2874L16.0098 24.3442L16.9337 25.2865L25.8968 16.1449C26.064 16.3007 26.2285 16.4602 26.3897 16.6246C29.1649 19.4551 30.6933 23.2184 30.6933 27.2213C30.6933 27.7139 30.6698 28.2029 30.6241 28.6871L24.9742 34.4496L25.8983 35.3921Z" fill="#3DDAFF"/>
<path d="M22.6866 6.80525C22.6866 7.92315 23.5783 8.83258 24.6744 8.83258H30.2515L29.3666 6.12471L30.2515 3.41685H24.6744C24.2987 3.41685 23.9932 3.10523 23.9932 2.72211C23.9932 1.60421 23.1016 0.694702 22.0055 0.694702H17.3347V2.02729H22.0054C22.3811 2.02729 22.6865 2.33891 22.6865 2.72203V4.90053C22.474 4.8212 22.2445 4.77792 22.0054 4.77792H17.3347V6.1106H22.0054C22.3811 6.11051 22.6866 6.42213 22.6866 6.80525ZM23.9932 4.62675C24.2058 4.70608 24.4352 4.74935 24.6744 4.74935H28.4388L27.9893 6.12463L28.4388 7.4999H24.6744C24.2987 7.4999 23.9932 7.1882 23.9932 6.80516V4.62675Z" fill="#3DDAFF"/>
</svg>
