<svg width="123" height="123" viewBox="0 0 123 123" fill="none" xmlns="http://www.w3.org/2000/svg">
<g clip-path="url(#clip0_101_48)">
<path d="M91.7811 96.995H91.3179V96.7357H92.5654V96.995H92.1049V98.2884H91.7811V96.995ZM94.2692 97.0625H94.262L93.8026 98.2888H93.5925L93.1364 97.0625H93.1309V98.2888H92.8255V96.7362H93.2748L93.6978 97.8356L94.1194 96.7362H94.5671V98.2888H94.269L94.2692 97.0625Z" fill="#E76F00"/>
<path d="M50.2986 65.2456C50.2986 65.2456 47.0746 67.1205 52.593 67.7549C59.2785 68.5176 62.6953 68.4083 70.0628 67.0139C70.0628 67.0139 71.9997 68.2284 74.7048 69.2803C58.189 76.3587 37.3263 68.8703 50.2986 65.2456ZM48.2805 56.0088C48.2805 56.0088 44.6644 58.6855 50.187 59.2567C57.3286 59.9935 62.9685 60.0537 72.7276 58.1745C72.7276 58.1745 74.0777 59.543 76.2002 60.2913C56.2314 66.1304 33.99 60.7518 48.2805 56.0088Z" fill="#5382A1"/>
<path d="M65.2941 40.34C69.3636 45.0253 64.2251 49.2417 64.2251 49.2417C64.2251 49.2417 74.5578 43.9074 69.8125 37.2277C65.3803 30.9982 61.9814 27.9033 80.3816 17.2318C80.3818 17.2316 51.4993 24.445 65.2941 40.34Z" fill="#3DDAFF"/>
<path d="M87.1376 72.0778C87.1376 72.0778 89.5235 74.0438 84.5101 75.5644C74.9769 78.4524 44.8321 79.3244 36.458 75.6797C33.4478 74.3699 39.0929 72.5526 40.8686 72.1712C42.7205 71.7696 43.7788 71.8444 43.7788 71.8444C40.4311 69.4861 22.1405 76.4749 34.4881 78.4767C68.1619 83.9376 95.8724 76.0176 87.1376 72.0778ZM51.8491 46.4384C51.8491 46.4384 36.5156 50.0804 46.4191 51.4029C50.6007 51.9627 58.9366 51.8361 66.7011 51.1855C73.0468 50.6502 79.4189 49.5123 79.4189 49.5123C79.4189 49.5123 77.1813 50.4706 75.5625 51.5757C59.9915 55.6711 29.9113 53.7658 38.571 49.5769C45.8945 46.0368 51.8491 46.4384 51.8491 46.4384ZM79.3557 61.8135C95.1843 53.5884 87.866 45.6839 82.7575 46.749C81.5055 47.0096 80.9472 47.2354 80.9472 47.2354C80.9472 47.2354 81.4122 46.5073 82.2995 46.1921C92.4053 42.6393 100.177 56.6707 79.0373 62.2283C79.0373 62.2283 79.2827 62.0096 79.3557 61.8135Z" fill="#5382A1"/>
<path d="M69.8125 0C69.8125 0 78.5787 8.76886 61.4983 22.2535C47.8015 33.07 58.375 39.2375 61.4926 46.2842C53.4978 39.0705 47.6305 32.7207 51.5667 26.8107C57.344 18.1353 73.3495 13.9292 69.8125 0Z" fill="#3DDAFF"/>
<path d="M53.4044 84.1018C68.5979 85.0744 91.9292 83.5622 92.4815 76.3733C92.4815 76.3733 91.4196 79.0984 79.925 81.263C66.9572 83.7032 50.9629 83.4185 41.4766 81.8545C41.477 81.854 43.4188 83.4615 53.4044 84.1018Z" fill="#5382A1"/>
<path d="M50.9144 111.572C49.4812 112.815 47.9674 113.513 46.6089 113.513C44.6699 113.513 43.6223 112.35 43.6223 110.485C43.6223 108.468 44.745 106.993 49.2479 106.993H50.9142L50.9144 111.572ZM54.8693 116.034V102.222C54.8693 98.6929 52.8569 96.3648 48.0047 96.3648C45.172 96.3648 42.6907 97.0643 40.6739 97.9563L41.256 100.401C42.8439 99.8185 44.8994 99.2759 46.9168 99.2759C49.712 99.2759 50.9144 100.401 50.9144 102.728V104.474H49.5194C42.7282 104.474 39.6647 107.11 39.6647 111.067C39.6647 114.482 41.6835 116.423 45.4847 116.423C47.928 116.423 49.752 115.414 51.457 113.938L51.7665 116.035L54.8693 116.034ZM68.0681 116.034H63.1356L57.1992 96.7145H61.507L65.1904 108.584L66.0092 112.154C67.8728 106.993 69.191 101.756 69.8502 96.7145H74.0404C72.9175 103.076 70.8974 110.059 68.0681 116.034ZM86.9906 111.572C85.5546 112.815 84.0384 113.513 82.6797 113.513C80.7441 113.513 79.6937 112.35 79.6937 110.485C79.6937 108.468 80.8186 106.993 85.3213 106.993H86.9906V111.572ZM90.9451 116.034V102.222C90.9451 98.6929 88.9278 96.3648 84.0809 96.3648C81.2464 96.3648 78.7641 97.0643 76.7483 97.9563L77.3297 100.401C78.9181 99.8185 80.9774 99.2759 82.9932 99.2759C85.7863 99.2759 86.9906 100.401 86.9906 102.728V104.474H85.5931C78.8001 104.474 75.7377 107.11 75.7377 111.067C75.7377 114.482 77.7549 116.423 81.5554 116.423C84.0004 116.423 85.8236 115.414 87.5314 113.938L87.842 116.035L90.9451 116.034ZM35.3282 119.315C34.2008 120.961 32.3798 122.263 30.3862 123L28.4336 120.702C29.951 119.924 31.2524 118.666 31.857 117.495C32.3801 116.453 32.5965 115.111 32.5965 111.9V89.8438H36.7984V111.598C36.7981 115.89 36.455 117.624 35.3282 119.315Z" fill="#3DDAFF"/>
</g>
<defs>
<clipPath id="clip0_101_48">
<rect width="123" height="123" fill="white"/>
</clipPath>
</defs>
</svg>
