<svg width="136" height="136" viewBox="0 0 136 136" fill="none" xmlns="http://www.w3.org/2000/svg">
<path d="M17 119V17H119V119H17Z" fill="#FFD600"/>
<path d="M83.6911 93.3498C85.6518 96.5345 87.7824 99.586 92.2959 99.586C96.0869 99.586 98.0759 97.7018 98.0759 95.0952C98.0759 91.9757 96.0189 90.8678 91.8483 89.0517L89.5618 88.077C82.9629 85.2777 78.5741 81.77 78.5741 74.3608C78.5741 67.5325 83.8016 62.3362 91.9701 62.3362C97.7869 62.3362 101.966 64.3507 104.981 69.6263L97.8578 74.1795C96.2909 71.3802 94.5966 70.278 91.9701 70.278C89.2898 70.278 87.5926 71.9695 87.5926 74.1795C87.5926 76.9108 89.2926 78.0158 93.2168 79.7073L95.5033 80.682C103.281 83.9942 107.667 87.3772 107.667 94.9818C107.667 103.176 101.195 107.667 92.5084 107.667C84.0113 107.667 79.1861 103.403 76.5001 98.124L83.6911 93.3498ZM50.8641 93.5822C52.2978 96.1492 54.4766 98.124 57.6103 98.124C60.6079 98.124 62.3334 96.9397 62.3334 92.3355V62.3333H71.7769V93.7862C71.7769 103.326 66.2434 107.667 58.1628 107.667C50.8613 107.667 45.5913 102.72 43.4436 98.124L50.8641 93.5822Z" fill="#000001"/>
</svg>
