<svg width="74" height="74" viewBox="0 0 74 74" fill="none" xmlns="http://www.w3.org/2000/svg">
<g clip-path="url(#clip0_101_34)">
<path d="M56.1943 35.9812L29.061 17.4812C28.6824 17.2247 28.194 17.1963 27.7894 17.4097C27.3861 17.6231 27.1333 18.0424 27.1333 18.5V55.5C27.1333 55.9575 27.3861 56.3769 27.7907 56.5902C27.9707 56.6864 28.1693 56.7333 28.3666 56.7333C28.6096 56.7333 28.8526 56.6605 29.061 56.5187L56.1943 38.0187C56.531 37.7893 56.7333 37.4082 56.7333 37C56.7333 36.5917 56.531 36.2106 56.1943 35.9812ZM29.6 53.1653V20.8347L53.3108 37L29.6 53.1653Z" fill="white"/>
<path d="M37 0C16.5982 0 0 16.5982 0 37C0 57.4018 16.5982 74 37 74C57.4018 74 74 57.4018 74 37C74 16.5982 57.4018 0 37 0ZM37 71.5333C17.9586 71.5333 2.46667 56.0414 2.46667 37C2.46667 17.9586 17.9586 2.46667 37 2.46667C56.0414 2.46667 71.5333 17.9586 71.5333 37C71.5333 56.0414 56.0414 71.5333 37 71.5333Z" fill="white"/>
</g>
<defs>
<clipPath id="clip0_101_34">
<rect width="74" height="74" fill="white"/>
</clipPath>
</defs>
</svg>
