<svg width="121" height="121" viewBox="0 0 121 121" fill="none" xmlns="http://www.w3.org/2000/svg">
<path fill-rule="evenodd" clip-rule="evenodd" d="M49.2183 7.5625C40.9105 7.5625 34.1759 14.0834 34.1759 22.1273V32.2107H60.2107V35.0116H22.6048C14.2972 35.0116 7.5625 41.5325 7.5625 49.5764V71.4237C7.5625 79.4675 14.2972 85.9883 22.6048 85.9883H31.2831V73.6644C31.2831 65.6206 38.0178 59.0994 46.3256 59.0994H74.0959C81.1256 59.0994 86.8239 53.5818 86.8239 46.7756V22.1273C86.8239 14.0834 80.0895 7.5625 71.7817 7.5625H49.2183ZM45.7471 25.4884C48.6227 25.4884 50.9539 23.2312 50.9539 20.4468C50.9539 17.6623 48.6227 15.4051 45.7471 15.4051C42.8711 15.4051 40.5399 17.6623 40.5399 20.4468C40.5399 23.2312 42.8711 25.4884 45.7471 25.4884Z" fill="url(#paint0_linear_101_56)"/>
<path fill-rule="evenodd" clip-rule="evenodd" d="M71.781 113.437C80.0888 113.437 86.8236 106.917 86.8236 98.8728V88.7894H60.7885V85.9886H98.3946C106.702 85.9886 113.437 79.4675 113.437 71.4236V49.5763C113.437 41.5324 106.702 35.0116 98.3946 35.0116H89.7162V47.3355C89.7162 55.3798 82.9814 61.9005 74.674 61.9005H46.9034C39.8737 61.9005 34.1753 67.4181 34.1753 74.2244V98.8728C34.1753 106.917 40.9101 113.437 49.2175 113.437H71.781ZM75.2526 95.5117C72.3765 95.5117 70.0454 97.7687 70.0454 100.553C70.0454 103.338 72.3765 105.595 75.2526 105.595C78.1282 105.595 80.4593 103.338 80.4593 100.553C80.4593 97.7687 78.1282 95.5117 75.2526 95.5117Z" fill="url(#paint1_linear_101_56)"/>
<defs>
<linearGradient id="paint0_linear_101_56" x1="47.1934" y1="7.5625" x2="47.1934" y2="85.9883" gradientUnits="userSpaceOnUse">
<stop stop-color="#327EBD"/>
<stop offset="1" stop-color="#1565A7"/>
</linearGradient>
<linearGradient id="paint1_linear_101_56" x1="73.8062" y1="35.0116" x2="73.8062" y2="113.437" gradientUnits="userSpaceOnUse">
<stop stop-color="#FFDA4B"/>
<stop offset="1" stop-color="#F9C600"/>
</linearGradient>
</defs>
</svg>
