<svg width="43" height="43" viewBox="0 0 43 43" fill="none" xmlns="http://www.w3.org/2000/svg">
<path d="M21.5 13.6818C17.1805 13.6818 13.6818 17.1805 13.6818 21.5C13.6818 25.8195 17.1805 29.3182 21.5 29.3182C25.8195 29.3182 29.3182 25.8195 29.3182 21.5C29.3182 17.1805 25.8195 13.6818 21.5 13.6818ZM38.9736 19.5455C38.5309 15.5819 36.7536 11.8866 33.9335 9.06654C31.1134 6.24643 27.4181 4.46909 23.4545 4.02636V1.95455C23.4545 0.879545 22.575 0 21.5 0C20.425 0 19.5455 0.879545 19.5455 1.95455V4.02636C15.5819 4.46909 11.8866 6.24643 9.06654 9.06654C6.24643 11.8866 4.46909 15.5819 4.02636 19.5455H1.95455C0.879545 19.5455 0 20.425 0 21.5C0 22.575 0.879545 23.4545 1.95455 23.4545H4.02636C4.46909 27.4181 6.24643 31.1134 9.06654 33.9335C11.8866 36.7536 15.5819 38.5309 19.5455 38.9736V41.0455C19.5455 42.1205 20.425 43 21.5 43C22.575 43 23.4545 42.1205 23.4545 41.0455V38.9736C27.4181 38.5309 31.1134 36.7536 33.9335 33.9335C36.7536 31.1134 38.5309 27.4181 38.9736 23.4545H41.0455C42.1205 23.4545 43 22.575 43 21.5C43 20.425 42.1205 19.5455 41.0455 19.5455H38.9736ZM21.5 35.1818C13.9359 35.1818 7.81818 29.0641 7.81818 21.5C7.81818 13.9359 13.9359 7.81818 21.5 7.81818C29.0641 7.81818 35.1818 13.9359 35.1818 21.5C35.1818 29.0641 29.0641 35.1818 21.5 35.1818Z" fill="url(#paint0_linear_32_188)"/>
<defs>
<linearGradient id="paint0_linear_32_188" x1="21.5" y1="0" x2="21.5" y2="43" gradientUnits="userSpaceOnUse">
<stop stop-color="#3DDAFF"/>
<stop offset="1" stop-color="#0B3753"/>
</linearGradient>
</defs>
</svg>
